<?xml version="1.0" encoding="utf-8"?>
<!DOCTYPE svg PUBLIC>
<svg version="1.1" x="0px" y="0px"
	 width="81.875px" height="47.916px" viewBox="0 0 81.875 47.916" enable-background="new 0 0 81.875 47.916" xml:space="preserve">
<rect x="-8.79" y="-6.227" fill="none" width="103.406" height="65.997"/>
<g>
	<path fill="#0B457D" d="M0.26,7.757h23.447v7.016H7.584v9.496H23.27v6.985H7.584v9.498h16.123v7.019H0.26V7.757z"/>
	<path fill="#0B457D" d="M36.447,0.608l-1.251,7.148H25.043v7.016h8.912l-5.783,33.123h7.862l4.184-23.961h0.003l1.6-9.162h7.104
		c-2.873,3.697-4.492,8.479-4.492,13.432c0,10.577,7.303,20.426,18.696,20.426c10.569,0,18.442-7.332,18.75-21.948H64.148v6.704
		h9.189c-0.658,3.721-3.521,8.223-9.697,8.223c-6.899,0-11.241-6.339-11.241-13.404c0-8.382,4.699-13.41,10.729-13.41
		c5.366,0,8.124,2.304,9.498,5.764l8.021-0.525c-1.406-4.126-4.819-12.004-16.98-12.238l0.019-0.037H43.045l1.245-7.148H36.447z"/>
</g>
</svg>
